# xmcd
#
# Track frame offsets: 
#        200
#        18125
#        35497
#        61367
#        103380
#        133337
#        159582
#        174290
#        195727
#        223155
#        241562
#        279312
#        323917
#
# Disc length: 4658 seconds
#
# Revision: 0
# Processed by: cddbd v1.5.1PL0 Copyright (c) Steve Scherf et al.
# Submitted via: ExactAudioCopy v0.95a2
#
DISCID=b612300d
DTITLE=Omar Sharriff - Baddass
DYEAR=1995
DGENRE=Blues
TTITLE0=Is There A Real Woman In The House?
TTITLE1=The Bible Says
TTITLE2=My Life Is A Nightmare
TTITLE3=Uhuru
TTITLE4=Take The Bitter With The Sweet
TTITLE5=Blame It On The Nigger
TTITLE6=I Want Some Money
TTITLE7=Blue Train
TTITLE8=I'm So Tired Of Being Alone
TTITLE9=It's A Shame
TTITLE10=Machine Gun
TTITLE11=Tribute To The Founding Fathers
TTITLE12=Mystery Bonus Track
EXTD=
EXTT0=
EXTT1=
EXTT2=
EXTT3=
EXTT4=
EXTT5=
EXTT6=
EXTT7=
EXTT8=
EXTT9=
EXTT10=
EXTT11=
EXTT12=
PLAYORDER=
